<svg xmlns="http://www.w3.org/2000/svg" width="350" height="170" viewBox="0 0 350 170">
  <path fill="none" d="M0 0h350v170H0V0z"/>
  <path d="M82.2 74.1c3 0 4.2 1.8 3.5 5.8l-2.5 14.6c-.2 1.1-.3 2.3-.3 3.4 0 3.3 1.9 5.5 6.2 5.5 4.1.1 7.9-2.5 9.2-6.4L97 95.8c-1.6 1.7-4 2.7-6 1.9l3.2-18.9c.2-1 .3-2 .3-3.1 0-5.5-3.6-8.2-8.2-8.2-4 0-7.6 1.9-10.7 7h-.3L79.5 49H78l-11.6 2.2-.2 1L70 56l-7.5 46.7h8.4l4-24.9c2.2-1.8 4.8-3.7 7.3-3.7zm45.5 2.5c0-5.6-3.9-9-10.6-9-11.7 0-18.7 10.6-18.7 21.1 0 9.7 5.5 14.7 13.6 14.7 6.9 0 11.5-2.3 14.3-8.7l-1.8-1.4c-3.7 3.6-5.8 5-9.9 5-5.5 0-7.6-4.3-7.6-10.7 12.7-.1 20.7-2.6 20.7-11zm-11.1-5.4c2.7 0 3.9 1.9 3.9 4.5 0 6.1-4.3 8.6-13.3 8.8 1.1-7.8 4.9-13.3 9.4-13.3zm14.3 44.8c.4-.7.5-1.4.6-2.2 0-2.6-1.5-4.8-4.4-4.8-3 0-4.8 2.1-4.8 5.2s2.4 5.3 6.5 5.3c14.6 0 35.8-29.5 35.8-45.6 0-4.3-2.4-6.5-5.9-6.5-3.1 0-5.3 1.9-5.3 5.1 0 2.4 1.5 4.8 4.8 4.8.7 0 1.5-.2 2-.6-1.1 7.6-6 17.5-11.7 25.2L145 74.5c-.6-4.3-1.8-7.1-6.7-7.1-4.2-.1-8 2.5-9.5 6.4l1.4 1.3c1.5-1.6 3.7-2.8 5.9-2.1l5.5 35.4c-2.9 3.3-7.3 7-10.7 7.6zm55.9-24.2c-2.3 3.3-5.4 6.1-8.9 6.1s-4.7-3.3-4.7-7.6c0-10.4 4.8-19 11.5-19 1.8-.1 3.5.4 5 1.3l-2.9 19.2zm5.7-35.8l-2 13c-1.9-1-4-1.5-6.1-1.4-11.5 0-19.7 10.6-19.7 23.1 0 8.2 3.6 12.8 10.3 12.8 4.5 0 8.6-1.9 10.9-7.1h.3c-.6 4.2 1 7.1 5.9 7.1 4.2.1 7.9-2.4 9.3-6.4l-1.4-1.4c-1.5 1.7-4 2.7-5.9 1.9l7.9-48.5h-1.5l-11.6 2.2-.2 1 3.8 3.7zM223 92c-2.3 3.8-5 6-8.2 6-3.5 0-4.7-3.2-4.7-7.6 0-9.9 4.7-19.1 11.2-19.1 1.8-.1 3.5.5 4.8 1.6L223 92zm-.4 4.6c-.3 4.2 1.3 6.9 5.8 6.9 4.2.1 7.9-2.4 9.3-6.4l-1.4-1.4c-1.5 1.7-3.9 2.7-5.9 1.9l5.2-30.1h-1.7l-5.6 1.9c-2.2-1.3-4.7-2-7.2-1.9-11 0-19.4 10.4-19.4 23.1 0 8.2 3.6 12.8 10.3 12.8 4.5.2 8.6-2.6 10.2-6.9h.4zm15.6 19.4c.4-.7.6-1.4.6-2.2 0-2.6-1.5-4.8-4.4-4.8-3 0-4.8 2.1-4.8 5.2s2.4 5.3 6.5 5.3c14.6 0 35.8-29.5 35.8-45.6 0-4.3-2.4-6.5-5.9-6.5-3.1 0-5.3 1.9-5.3 5.1 0 2.4 1.5 4.8 4.8 4.8.7 0 1.5-.2 2-.6-1.1 7.6-6 17.5-11.7 25.2l-3.3-27.3c-.6-4.3-1.8-7.1-6.7-7.1-4.2-.1-8 2.5-9.5 6.4l1.4 1.3c1.5-1.6 3.7-2.8 5.9-2.1l5.5 35.4c-3.1 3.2-7.3 6.9-10.9 7.5zM277 86.6h3.3l7.3-26.7.8-4.8h-10.1l-.8 4.8-.5 26.7zm-5.9 9.7c0 3.1 2.5 5.7 5.7 5.7 3.1 0 5.7-2.5 5.7-5.7 0-3.1-2.5-5.7-5.7-5.7s-5.7 2.6-5.7 5.7z"/>
</svg>
