<svg xmlns="http://www.w3.org/2000/svg" width="331.2" height="122.16" viewBox="0 0 331.2 122.16">
  <path fill="#FEFEFE" d="M.24 91.2c0-29.99 0-59.99-.02-89.98C.22.45.31.21 1.18.21c109.77.03 219.55.03 329.32 0 .86 0 .96.23.96 1-.02 27.67-.02 55.35-.02 83.02-1.12.39-1.59.14-1.76-.95-.09-.55-.05-1.12-.05-1.68 0-1.88.02-3.76-.01-5.64-.02-1.3-.15-1.43-1.47-1.44-3.6-.02-7.2 0-10.8-.01-1.9-.01-2.11-.22-2.12-2.16-.01-1.6.01-3.2-.01-4.8-.02-1.27-.12-1.38-1.35-1.43-.86-.03-1.62-.08-2.12-1.01-.38-.7-1.22-.47-1.87-.36-.78.13-.62.84-.62 1.36-.02 6.68-.01 13.36-.01 20.04 0 1.28.04 2.56-.02 3.84-.05 1.23-.44 1.57-1.63 1.54-1.07-.03-1.41-.34-1.47-1.45-.06-1.08-.04-2.16-.02-3.24.01-.82-.25-1.31-1.15-1.3-.9.02-1.42-.42-1.52-1.33-.02-.16-.08-.43-.16-.43-1.62-.08-1.79-2.1-3.25-2.39-.62-.12-.8-.6-.84-1.16-.06-.72-.02-1.44-.04-2.16-.03-1.29-.12-1.38-1.36-1.39-.52-.01-1.04.02-1.56 0-.87-.04-1.57.05-1.75 1.14-.11.69-.76.74-1.33.77-1.16.05-2.32.04-3.48.01-.89-.02-1.32.3-1.31 1.25.01.69.22 1.6-.62 1.91-1.02.38-2.14.38-3.17-.04-.55-.23-.51-.86-.52-1.38-.04-1.56 0-3.12-.02-4.68-.01-1.51-.11-1.6-1.66-1.61h-.48c-2 0-3.12 1.07-3.11 3.11.02 3.95-.81 7.86-.5 11.83.02.24-.02.48-.08.71-.09.37-.26.68-.69.73-.45.04-.77-.16-.96-.56-.23-.49-.2-1.02-.2-1.53-.01-2.8 0-5.6-.01-8.4-.01-1.44-.04-1.46-1.46-1.56-1.4-.1-1.63-.32-1.65-1.77-.04-2.63.34-2.55-2.66-2.54-1.81.01-1.88.08-1.89 1.9v2.76c0 .56.05 1.12-.01 1.68-.09.8.37 2.06-.93 2.09-1.35.04-.91-1.24-.98-2.03-.07-.83-.03-1.68-.01-2.52.02-.89-.01-1.66-1.16-1.87-.74-.13-.74-.87-.75-1.47-.01-.76-.08-1.43-1-1.65-.44-.1-.58-.51-.64-.93-.07-.48-.05-.96-.05-1.44v-19.8c0-1.66.05-1.98-1.7-1.95-.94.01-1.38-.48-1.4-1.41-.01-.52-.04-1.04-.01-1.56.05-1-.04-1.8-1.33-1.94-.83-.09-.78-.89-.82-1.53-.11-1.41-.14-1.45-1.57-1.46-2.4-.01-4.8-.02-7.2 0-.99.01-1.8-.28-2.39-1.1-.19-.26-.39-.54-.65-.7-1.7-1.01-1.82-2.68-1.85-4.39-.03-1.17.06-2.35-.04-3.53-.04-.16-.21.08-.07-.01.05-.03.08-.01.08.08.04 1.88.11 3.75-.2 5.61-.08.48-.15.97-.57 1.28-1.43 1.06-2.36 2.61-3.68 3.77-.94.82-1.3 1.82-1.29 3.08.04 5.16.02 10.32.01 15.48 0 2.07-.18 2.24-2.27 2.25-2.64.01-5.28-.01-7.92.01-1.46.01-1.56.11-1.57 1.58-.01 8.2 0 16.4-.01 24.6 0 .56.04 1.12-.08 1.67-.08.37-.22.71-.69.69-.39-.02-.52-.33-.6-.65-.11-.47-.09-.95-.09-1.43 0-4.76-.08-9.52.03-14.28.06-2.66-1.48-3.21-3.35-3.04-.36.03-.71.12-1.06.21-.65.16-.98-.15-1.08-.77-.08-.52-.06-1.04-.06-1.56 0-10.04-.02-20.08.02-30.12.01-1.54-.59-2.98-.56-4.5.01-.5-.38-.72-.82-.68-1.86.21-2.96-.94-4-2.2-.25-.31-.52-.61-.82-.87-.83-.72-2.11-.75-2.98-.07-.41.32-.76.72-1.07 1.13-.97 1.26-2.09 2.21-3.82 2.02-.16-.02-.31.06-.47.25.56.75.7 1.63.58 2.56-.13 1.02-.63 1.3-1.58.92-.15-.06-.27-.17-.42-.23-1.38-.55-2.04-.11-2.04 1.38-.01 7.88 0 15.76-.01 23.64 0 1.2.3 2.52-1.32 3.1-.47.17-.32.85-.36 1.32-.12 1.28-.34 1.49-1.63 1.56-.28.01-.56.01-.84.01-1.81-.02-1.97-.14-2.1-1.94-.05-.68-.21-1.17-1.02-1.17-.73.01-1.4-.05-1.64.95-.32 1.33-1.51 1.57-2.52.6-.58-.55-2.35-.82-3.02-.48-.29.15-.39.41-.41.68-.08 1.11-.79 1.36-1.74 1.35-1.12-.01-2.24.01-3.36 0-.72 0-1.35.07-1.62.9-.17.52-.64.68-1.14.74-.6.06-1.2.02-1.8.04-.99.02-1.63-.33-1.68-1.41-.03-.7-.46-.96-1.11-.97-1.72-.02-3.44 0-5.16-.01-.82-.01-1.14.37-1.14 1.17v4.8c0 .77-.04 1.52-.8 2.01-.42.27-.38.77-.43 1.2-.1.87-.64 1.13-1.42 1.1-.79-.03-1.14-.49-1.17-1.23-.07-1.64-.01-3.28-.04-4.92-.02-1.34-.13-1.46-1.43-1.47-1.44-.02-2.88-.02-4.32 0-1.3.02-1.42.14-1.42 1.47-.01 4.52 0 9.04-.01 13.56 0 .48.02.96-.06 1.44-.08.53-.33.91-.93.9-.61-.01-.82-.42-.9-.93-.07-.44-.05-.88-.05-1.32v-8.76c0-1.32.14-1.87-1.59-1.83-.36.01-.78-.05-.98-.37-.52-.83-1.3-.8-2.11-.8-1.72.01-3.44 0-5.16 0-1.33 0-1.41.07-1.42 1.44-.01 2.92.01 5.84-.01 8.76-.01 1.88-.49 2.38-2.29 2.46-1.33.06-2.18-.8-2.26-2.37-.04-.78-.05-1.48-.93-1.88-.58-.26-.51-.95-.52-1.5-.02-1.88-.01-3.76-.01-5.64V53.86c0-.93.18-1.8.45-2.69.52-1.74.31-3.57.39-5.36.04-.8.02-1.6.04-2.4.01-.49.09-1.05.52-1.29 1.16-.65.74-1.75.84-2.68.06-.55-.48-.71-.88-.85-1.25-.45-1.7-1.33-1.6-2.61.07-.91-.06-1.84.17-2.75.04-.15.09-.32.02-.47-1.25-3.03-1.08-6.24-1.13-9.41-.06-3.28-.39-6.55-.25-9.83.09-2.02.23-4.04-.01-5.69.04 1.36.05 3.09.05 4.82.01 4.56-.39 9.11-.28 13.67.04 1.73-.16 3.51-.62 5.09-.49 1.65-.24 3.21-.3 4.8-.05 1.08-.39 1.79-1.37 2.3-1.29.66-1.51 2.24-.53 3.28.93.98 1.03 2.2.96 3.44-.11 2.11-.32 4.22.44 6.27.21.58.24 1.17.24 1.77 0 6.48.01 12.96 0 19.44 0 1.54-.29 2.05-1.13 1.97-1.27-.11-.96-1.15-1.05-1.93-.04-.36-.05-.72-.06-1.08-.08-1.66-.08-1.67-1.69-1.67-.92-.01-1.84-.01-2.76 0-1.33.02-1.45.13-1.45 1.44-.02 3.08 0 6.16-.01 9.24 0 .44.02.88-.08 1.32-.08.37-.21.71-.67.71-.42.01-.64-.27-.79-.62a1.29 1.29 0 0 1-.11-.47c.05-1.15-.16-2.19-1.08-3.03-.35-.32-.34-.88-.36-1.36-.17-6.04.06-12.07.39-18.09.08-1.39-.08-1.61-1.5-1.62-3-.01-6-.02-9 0-1.35.01-1.7.4-1.32 1.69.33 1.1.35 2.2.35 3.32 0 3.48.02 6.96-.01 10.44-.01 1.7-.38 2.06-2.06 2.04-.68-.01-1.26.04-1.64.71-.14.25-.42.4-.71.41-1.09.03-1.37.64-1.39 1.64-.03 1.18-.44 1.51-1.66 1.56-1.4.06-2.8.01-4.2.02-.64 0-1.26.07-1.87.33-.89.38-1.45.12-1.51-.84-.08-1.29-.78-1.44-1.82-1.42-2.09.04-2.09 0-2.09 2.14v4.68c0 .36.02.72-.04 1.08-.07.43-.09.96-.68.97-.6.02-.66-.5-.7-.94-.09-.88-.05-1.76-.04-2.64.01-.81-.13-1.42-1.11-1.5-.81-.07-1.01-.68-1.03-1.38-.04-1.36-.04-2.72-.01-4.08.02-.93-.26-1.55-1.26-1.69-.83-.11-1.11-.68-1.13-1.45-.03-1.24-.03-2.48-.01-3.72.01-.88-.29-1.34-1.24-1.32-1.52.03-3.04.01-4.56.01-.81 0-1.15.37-1.14 1.17.01 1.36 0 2.72-.01 4.08-.01 1-.49 1.47-1.47 1.46-.16 0-.32.01-.48.01-2.6.05-2.81-.15-2.86-2.72-.03-1.52-.1-1.59-1.66-1.6-.48 0-.96.01-1.44-.01-1.39-.05-1.66-.31-1.68-1.74-.04-2 .01-4-.02-6-.01-1.14-1.24-2.69-2.35-3.02-.11-.03-.24-.04-.34-.11-2.02-1.52-4.19-2.85-5.77-4.89-.23-.3-.38-.63-.37-1 .06-2.39-.26-4.79-.08-6.87-.29 1.44.08 3.2.06 4.96-.02 1.74-.54 3.12-1.83 4.37-2.97 2.88-2.48 1.83-2.5 6.01-.02 8.04-.01 16.08-.01 24.12 0 .4-.02.8 0 1.2.12 1.91-.82 2.15-2.7 1.79-.52-.1-.77-.53-.86-1.05-.09-.52-.07-1.04-.07-1.56V55.22c0-.92-.02-1.83.52-2.66.31-.48.2-1.09.2-1.65 0-3.75.03-7.5.01-11.25-.01 1.35 0 2.71-.01 4.06-.01 1.96-.72 2.4-2.43 1.43-3.02-1.7-6.25-2.83-9.61-3.6-1.63-.38-3.28-.72-4.97-.62-.35.02-.81-.05-.95.35-.13.39.24.65.51.87 1.05.83 2.27 1.33 3.48 1.85.44.19.9.34 1.31.59.43.25.58.62.13.94-.58.41-.62.97-.67 1.58-.1 1.2-.35 1.42-1.57 1.48-.56.03-1.12.02-1.68.02-.69 0-1.03.32-1.04 1.02 0 .4-.01.8-.01 1.2v26.4c0 .44.01.88-.01 1.32-.05 1.41-.31 1.67-1.7 1.73-2.37.1-2.19.14-2.7 2.45-.52 2.39-.29 4.77-.4 7.16-.04.74-.07 1.46-1.05 1.62-1.17.19-1.77-.23-1.82-1.42-.07-1.48-.03-2.96-.02-4.44.01-.74-.24-1.06-1.03-1.11-1.28-.07-1.57-.42-1.6-1.74-.05-2.2-.01-4.4-.02-6.6-.01-1.59-.08-1.67-1.72-1.67-3.56-.01-7.12.01-10.68-.01-1.76-.01-1.98-.25-2-2.04-.01-1.64.01-3.28-.01-4.92-.01-1.27-.12-1.39-1.35-1.43-.86-.03-1.6-.1-2.12-1-.42-.73-1.3-.5-1.98-.33-.68.16-.51.83-.51 1.32 0 7.36.01 14.72.01 22.08 0 3.58.12 3.4-3.44 3.35-1.06-.01-2.17.3-3.17-.35z"/>
  <path fill-rule="evenodd" clip-rule="evenodd" fill="#014095" d="M.24 91.2c1.72 0 3.44-.05 5.16.02.88.04 1.15-.18 1.15-1.1-.03-7.96-.01-15.92 0-23.88 0-1.98 0-1.98 2.04-1.98.28 0 .56-.02.84.01.14.02.39.13.38.19-.2 2.09 1.39 1.24 2.25 1.25.97.02 1.3.22 1.25 1.25-.09 2.08.01 4.16-.04 6.24-.02.8.25.99 1.02.99 4.04-.04 8.08.02 12.12-.04.97-.01 1.21.27 1.19 1.21-.06 2.56.02 5.12-.04 7.67-.02.89.2 1.17 1.12 1.14 1.64-.07 1.64-.01 1.64 1.6 0 1.52.06 3.04-.01 4.56-.04.81.31.91.98.9.69-.01 1.18-.05 1.05-.94-.06-.43.04-.89-.02-1.32-.39-2.85.6-5.6.57-8.43 0-.52.29-.58.69-.58.76.01 1.53-.06 2.28.02 1.04.1 1.41-.19 1.4-1.34-.06-9.68 0-19.36-.07-29.04-.01-1.28.38-1.64 1.54-1.46.2.03.4.01.6.01 2.09.01 2.18 0 2.15-2.06-.01-1.06.79-.57 1.37-.92-1.39-.62-2.62-1.19-3.87-1.72-.78-.33-1.44-.85-2.1-1.36-.31-.24-.62-.57-.47-1.01.15-.45.57-.48.98-.52 2.23-.19 4.38.31 6.49.86 3.27.85 6.47 1.93 9.4 3.71 1.01.62 1.43.36 1.44-.79 0-1.72-.01-3.44.01-5.16 0-.26-.2-.72.34-.72.5 0 .37.44.37.72.01 4.36.61 8.83-.17 13.05-.72 3.89-.28 7.68-.48 11.5-.21 3.91-.05 7.84-.05 11.76 0 3.96.05 7.92-.03 11.88-.02 1.06.41 1.15 1.25 1.13 1.66-.04 1.66-.01 1.66-1.64 0-9.32.01-18.64-.01-27.96 0-.69.15-1.16.7-1.64 1.08-.94 2.02-2.04 3.09-3 .56-.5.41-1.1.44-1.65.13-2.27.19-4.55.28-6.83.01-.26-.08-.57.24-.81.11 2.51.35 4.98.27 7.44-.04 1.34.67 2.03 1.46 2.8.68.67 1.39 1.31 2.04 2.01.3.32.58.5 1.03.47.62-.05 1.16-.09 1.15.87-.01.65.7.38 1.07.36.68-.03 1.09.08.99.89-.03.26-.04.67.35.63 1.02-.12.82.57.82 1.14 0 2.4.02 4.8-.01 7.2-.01.68.17.91.87.87 1.08-.06 2.16.01 3.24-.03.55-.02.84.12.75.72-.03.2 0 .4 0 .6.01 3.16.34 3.42 3.5 2.97.63-.09.54-.46.54-.84.01-1.64.04-3.28-.01-4.92-.02-.71.13-.99.91-.96 2 .06 4 .06 6 .01.71-.02.87.23.85.88-.04 1.56.01 3.12-.03 4.68-.01.65.03 1.09.87.99 1.22-.14 1.61.44 1.52 1.66-.12 1.47.02 2.96-.05 4.44-.04.8.22 1.12 1 .99.94-.15 1.25.22 1.18 1.17-.09 1.15-.03 2.32-.01 3.48 0 .25-.15.65.23.69.51.06.38-.4.38-.69.01-2.32.08-4.64-.02-6.96-.05-1.19.26-1.69 1.49-1.48.39.07.8.01 1.2.01 1.86 0 1.86 0 2.01 1.86.02.27-.07.6.32.67.28.05.69.1.76-.16.18-.73.72-.5 1.15-.5 1.8-.02 3.6-.03 5.4.01.7.01 1.08-.16.97-.93-.02-.16.02-.32-.01-.48-.18-1.22.08-2.01 1.58-1.69.24.05.73.08.71-.24-.09-1.37.87-1.02 1.59-1.02 1.93-.01 1.93 0 1.93-1.97 0-3.72-.06-7.44.04-11.16.03-1.2-.67-2.21-.54-3.43.08-.81.38-.87 1.02-.86 3.6.02 7.2.04 10.8-.01.86-.01 1.02.32.93 1.03-.64 5.32-.25 10.66-.39 15.99-.03 1.08-.01 2.16.01 3.23.01.74-.15 1.6 1.05 1.6.42 0 .3.41.3.65.02.68-.01 1.36 0 2.04.01.33-.14.78.43.81.69.04.5-.49.5-.84.01-3.6.05-7.2-.02-10.8-.02-.98.21-1.32 1.23-1.25 1.55.09 3.12.05 4.68.02.57-.01.76.14.74.73-.05 1.07.02 2.15-.02 3.22-.02.61.16.85.81.85.59-.01.74-.21.74-.77-.01-7.08-.01-14.16-.01-21.24-1.06-2.04-.49-4.28-.81-6.41-.11-.7.3-1.33.07-2.14-.25-.88-.13-1.77-1.28-2.04-.2-.05-.29-.19-.26-.52.15-1.55.04-3.21 2.18-3.51.1-.01.25-.15.25-.23-.03-1.47.43-2.97-.23-4.4-.18-.39-.36-.88.16-.91.98-.05.65-.7.69-1.18.73-8.19.5-16.42 1.14-24.63.06 1.22.13 2.44.17 3.66.17 5.96.32 11.91.51 17.87.04 1.22.44 2.42.3 3.67-.04.39.09.59.52.58.64-.03.68.46.43.79-1.05 1.4-.27 2.96-.4 4.43-.04.48.78.56 1.23.77.75.35 1.58.62 1.09 1.76-.1.24-.11.6 0 .83.38.78.05 1.14-.67 1.31-.6.14-.67.58-.67 1.09-.03 2.18.25 4.43-.19 6.53-1.03 4.93-.49 9.89-.58 14.83-.11 5.68-.02 11.36-.03 17.04 0 .65-.03 1.2.9 1.1.72-.08.52.51.57.91.12.88-.35 1.84.58 2.63.28.24.45.42.8.43 1.97.09 2.33-.24 2.33-2.14 0-3.2.02-6.4-.02-9.6-.01-.8.15-1.12 1.04-1.09 2.44.07 4.88.03 7.32.02.54 0 .95.04.86.76-.09.75.48.56.88.57 1.99.04 1.99.04 1.99 2 0 3.32-.01 6.64.01 9.96 0 .41-.27 1.02.58 1 .84-.02.55-.64.55-1.04.02-5.12.04-10.24-.01-15.36-.01-.97.28-1.19 1.2-1.16 1.96.07 3.92.05 5.88.01.68-.01.9.18.88.87-.04 2 .01 4-.03 6-.02.71.24.89.89.84.52-.04 1.02.09 1.01-.75-.02-.75-.49-1.85 1.05-1.82.32.01.21-.54.21-.85.01-1.88.06-3.76-.02-5.64-.04-.96.17-1.34 1.22-1.29 1.92.09 3.84.07 5.76.01.87-.03 1.31.18 1.16 1.11-.19 1.08.28 1.44 1.32 1.28.51-.08 1.04-.08 1.56-.03.81.07 1.32-.08 1.19-1.06-.09-.64.41-.55.8-.55 1.56 0 3.12-.04 4.68.01.8.03 1.24-.14 1.07-1.02-.2-1.04.28-1.32 1.24-1.2.59.07 1.2.03 1.8.01.59-.02 1.07-.06 1.06.82 0 .87.78.39 1.2.47.39.07.78.06.81-.56.03-.52-.33-1.36.26-1.52.86-.23 1.83-.15 2.73-.05.46.05.25.6.26.93.05 2.12.04 2.12 2.12 2.12.2 0 .4-.03.6 0 .92.16 1.33-.17 1.18-1.14-.06-.43 0-.88-.01-1.32-.01-.45.18-.71.63-.63.96.16.99-.38.99-1.12-.02-8.6.01-17.2-.04-25.8 0-1 .25-1.42 1.23-1.2.63.14 1.49-.47 1.88.63.08.23.94.43.99-.39.04-.64-.01-1.28.01-1.92.02-.42-.16-.56-.56-.56-.48-.01-.41-.39-.42-.7 0-.42.31-.45.58-.39 2.15.45 3.37-.79 4.52-2.33.63-.84 1.39-1.59 2.69-1.37.65.11 1.16.17 1.61.77.64.86 1.47 1.56 2.17 2.38.67.79 1.54.57 2.33.52.96-.06 1.19.2 1.29 1.21 1.09 11.95.17 23.92.48 35.88.02.81.02.81.72.44.98-.53 4.04.21 4.66 1.19.17.26.1.69.1 1.04v15.96c0 .2-.03.41.01.6.06.3-.24.83.39.79.58-.04.29-.55.34-.85.05-.31.01-.64.01-.96 0-8.6.01-17.2-.02-25.79 0-.94.22-1.22 1.18-1.2 3.2.06 6.4 0 9.6.04.79.01.99-.21.99-1-.03-5.72 0-11.44-.03-17.16 0-.73.15-1.31.69-1.8 1.61-1.47 2.75-3.41 4.64-4.58.31-.19.19-.49.21-.74.19-2.25.36-4.51.66-6.76.17 2.18.36 4.37.5 6.55.04.53.07.86.69 1.14.61.28 1.08.94 1.5 1.52.61.84 1.38 1.03 2.37 1.01 2.6-.06 5.2.02 7.8-.04.86-.02 1.29.15 1.13 1.1-.05.27.04.57-.01.84-.17 1 .23 1.41 1.22 1.23.85-.15 1.04.28.95 1.01-.04.36-.01.72-.01 1.08.01.84-.26 1.86.13 2.46.39.61 1.48.19 2.26.21.64.02.7.33.7.84-.02 1.68 0 3.36 0 5.04 0 5.8.01 11.6-.01 17.4 0 .71.09 1.17.94 1.02.65-.12.86.19.8.8-.04.32.03.64-.01.96-.12.95.07 1.56 1.23 1.32.62-.13.71.23.7.76-.03 1.64 0 3.28-.01 4.92 0 .47-.03.87.64.89.74.02.59-.47.59-.88.01-2.2.06-4.4-.02-6.6-.04-.99.31-1.24 1.22-1.18 1.08.07 2.16.04 3.24.01.61-.02.91.16.82.8-.03.2-.01.4 0 .6.02.88-.26 1.95.14 2.58.41.63 1.56.21 2.38.22.83.01.62.56.62.99.01 3.28.01 6.56.01 9.84 0 .28-.01.56.01.84.02.46.32.59.73.59.5 0 .44-.36.44-.67 0-2-.15-4.01.04-6 .24-2.51.43-5.01.35-7.54-.01-.22-.03-.6.25-.59.78.01.81-.45.76-1.02-.04-.46.15-.64.62-.64 1.28.02 2.56.03 3.84-.01.75-.02.7.44.7.94-.01 2 .03 4-.02 6-.02.76.22.92.94.92 2.52.01 2.55.04 2.56-2.53 0-.73.19-.97.94-.95 1.48.05 2.96-.02 4.44.03.7.02 1.09-.14.96-.91-.15-.9.31-1.06 1.09-1.02 1.12.05 2.24.03 3.36-.02.57-.02.78.13.76.73-.04 1.08.05 2.16 0 3.24-.03.72.06 1.14.95 1.01.82-.12 1.43.11 1.23 1.15-.12.62.22.78.75.69 1.05-.18 1.51.23 1.33 1.29-.17.99.46.95 1.14.95 1.57.01 1.57.03 1.57 1.61 0 1.2.04 2.4-.02 3.6-.04.75.39.83.88.69.54-.15 1.48.61 1.58-.61.05-.6.03-1.2.03-1.8 0-7.76.02-15.52-.02-23.28-.01-1 .26-1.38 1.25-1.24.39.06.8.04 1.2 0 .65-.07 1 .12.88.84-.08.52.15.75.67.67.08-.01.16 0 .24 0 2.52.05 2.52.05 2.52 2.55 0 1.56.05 3.12-.01 4.68-.04.91.18 1.22 1.17 1.21 3.96-.06 7.92 0 11.88-.05.96-.01 1.32.19 1.28 1.23-.08 2.36.05 4.72-.05 7.07-.05 1.17.1 1.93 1.49 1.79v38.16c-.42.22-.86.11-1.3.11-109.54.01-219.07.01-328.61 0-.43 0-.88.11-1.3-.11C.24 112 .24 101.6.24 91.2z"/>
  <path fill-rule="evenodd" clip-rule="evenodd" fill="#FEFEFE" d="M.24 122.4h331.2c-.05.07.12.25-.12.24-.32-.01-.64 0-.96 0-109.68 0-219.36 0-329.04-.01-.35-.01-.81.27-1.08-.23z"/>
  <path fill-rule="evenodd" clip-rule="evenodd" fill="#FDFDFE" d="M51.93 45.37c-2.24 0-4.25.13-6.23-.03-2.17-.18-4.07-1.27-5.92-2.36-.35-.21-.71-.63-.56-1.06.1-.29.55-.24.93-.26 3.31-.12 6.3 1.04 9.28 2.23.82.32 1.71.58 2.5 1.48z"/>
  <path fill-rule="evenodd" clip-rule="evenodd" fill="#FAFBFC" d="M164.56 84.63c0-1.64.03-3.28-.02-4.91-.02-.71.26-.88.9-.85.61.03 1.06.02 1.05.87-.04 3.27-.03 6.55 0 9.82.01.77-.3.92-1 .92-.72.01-.98-.19-.96-.94.07-1.64.03-3.28.03-4.91z"/>
  <path fill-rule="evenodd" clip-rule="evenodd" fill="#FBFCFD" d="M98.73 83.05v1.78c0 .33.02.65-.46.64-.43-.01-.38-.32-.38-.58v-3.57c0-.34.01-.67.49-.58.35.06.52.22.44.66-.11.54-.08 1.1-.11 1.65h.02z"/>
</svg>
